<!--<svg xmlns="http://www.w3.org/2000/svg" xmlns:xlink="http://www.w3.org/1999/xlink" width="200" height="200" version="1.1" viewBox="0 0 200 200"><title>Group 28 Copy 5</title><desc>Created with Sketch.</desc><defs><linearGradient id="linearGradient-1" x1="62.102%" x2="108.197%" y1="0%" y2="37.864%"><stop offset="0%" stop-color="#4285EB"/><stop offset="100%" stop-color="#2EC7FF"/></linearGradient><linearGradient id="linearGradient-2" x1="69.644%" x2="54.043%" y1="0%" y2="108.457%"><stop offset="0%" stop-color="#29CDFF"/><stop offset="37.86%" stop-color="#148EFF"/><stop offset="100%" stop-color="#0A60FF"/></linearGradient><linearGradient id="linearGradient-3" x1="69.691%" x2="16.723%" y1="-12.974%" y2="117.391%"><stop offset="0%" stop-color="#FA816E"/><stop offset="41.473%" stop-color="#F74A5C"/><stop offset="100%" stop-color="#F51D2C"/></linearGradient><linearGradient id="linearGradient-4" x1="68.128%" x2="30.44%" y1="-35.691%" y2="114.943%"><stop offset="0%" stop-color="#FA8E7D"/><stop offset="51.264%" stop-color="#F74A5C"/><stop offset="100%" stop-color="#F51D2C"/></linearGradient></defs><g id="Page-1" fill="none" fill-rule="evenodd" stroke="none" stroke-width="1"><g id="logo" transform="translate(-20.000000, -20.000000)"><g id="Group-28-Copy-5" transform="translate(20.000000, 20.000000)"><g id="Group-27-Copy-3"><g id="Group-25" fill-rule="nonzero"><g id="2"><path id="Shape" fill="url(#linearGradient-1)" d="M91.5880863,4.17652823 L4.17996544,91.5127728 C-0.519240605,96.2081146 -0.519240605,103.791885 4.17996544,108.487227 L91.5880863,195.823472 C96.2872923,200.518814 103.877304,200.518814 108.57651,195.823472 L145.225487,159.204632 C149.433969,154.999611 149.433969,148.181924 145.225487,143.976903 C141.017005,139.771881 134.193707,139.771881 129.985225,143.976903 L102.20193,171.737352 C101.032305,172.906015 99.2571609,172.906015 98.0875359,171.737352 L28.285908,101.993122 C27.1162831,100.824459 27.1162831,99.050775 28.285908,97.8821118 L98.0875359,28.1378823 C99.2571609,26.9692191 101.032305,26.9692191 102.20193,28.1378823 L129.985225,55.8983314 C134.193707,60.1033528 141.017005,60.1033528 145.225487,55.8983314 C149.433969,51.69331 149.433969,44.8756232 145.225487,40.6706018 L108.58055,4.05574592 C103.862049,-0.537986846 96.2692618,-0.500797906 91.5880863,4.17652823 Z"/><path id="Shape" fill="url(#linearGradient-2)" d="M91.5880863,4.17652823 L4.17996544,91.5127728 C-0.519240605,96.2081146 -0.519240605,103.791885 4.17996544,108.487227 L91.5880863,195.823472 C96.2872923,200.518814 103.877304,200.518814 108.57651,195.823472 L145.225487,159.204632 C149.433969,154.999611 149.433969,148.181924 145.225487,143.976903 C141.017005,139.771881 134.193707,139.771881 129.985225,143.976903 L102.20193,171.737352 C101.032305,172.906015 99.2571609,172.906015 98.0875359,171.737352 L28.285908,101.993122 C27.1162831,100.824459 27.1162831,99.050775 28.285908,97.8821118 L98.0875359,28.1378823 C100.999864,25.6271836 105.751642,20.541824 112.729652,19.3524487 C117.915585,18.4685261 123.585219,20.4140239 129.738554,25.1889424 C125.624663,21.0784292 118.571995,14.0340304 108.58055,4.05574592 C103.862049,-0.537986846 96.2692618,-0.500797906 91.5880863,4.17652823 Z"/></g><path id="Shape" fill="url(#linearGradient-3)" d="M153.685633,135.854579 C157.894115,140.0596 164.717412,140.0596 168.925894,135.854579 L195.959977,108.842726 C200.659183,104.147384 200.659183,96.5636133 195.960527,91.8688194 L168.690777,64.7181159 C164.472332,60.5180858 157.646868,60.5241425 153.435895,64.7316526 C149.227413,68.936674 149.227413,75.7543607 153.435895,79.9593821 L171.854035,98.3623765 C173.02366,99.5310396 173.02366,101.304724 171.854035,102.473387 L153.685633,120.626849 C149.47715,124.83187 149.47715,131.649557 153.685633,135.854579 Z"/></g><ellipse id="Combined-Shape" cx="100.519" cy="100.437" fill="url(#linearGradient-4)" rx="23.6" ry="23.581"/></g></g></g></g></svg>-->
<svg t="1714828113007" class="icon" viewBox="0 0 1024 1024" version="1.1" xmlns="http://www.w3.org/2000/svg" p-id="1078" width="200" height="200"><path d="M179.591529 371.651765a18.221176 18.221176 0 0 0 18.281412-18.251294V220.400941h132.969412c10.119529 0 18.251294-8.131765 18.251294-18.281412a18.191059 18.191059 0 0 0-18.251294-18.251294H179.591529c-10.149647 0.993882-18.281412 9.125647-18.281411 18.251294v151.250824c0 10.119529 8.131765 18.281412 18.281411 18.281412z m701.409883-175.616c0-1.024-0.993882-2.017882-2.017883-3.041883-0.993882-0.993882-0.993882-2.017882-2.017882-3.041882-0.993882-1.024-2.017882-1.024-3.072-2.017882-0.993882-1.024-1.987765-1.024-3.041882-2.048-2.017882-1.024-4.065882-1.024-7.107765-1.024h-151.220706a18.221176 18.221176 0 0 0-18.281412 18.281411c0 10.119529 8.161882 18.251294 18.281412 18.251295h132.99953v132.999529c0 10.149647 8.131765 18.251294 18.221176 18.251294a18.160941 18.160941 0 0 0 18.251294-18.251294V202.119529c0-2.017882 0-4.035765-0.993882-6.083764zM330.842353 825.374118H196.848941v-132.99953a18.160941 18.160941 0 0 0-18.281412-18.221176c-10.119529 0-17.257412 8.101647-17.257411 18.221176v151.250824c0 2.017882 0 5.059765 1.024 7.077647 0 1.024 0.993882 2.017882 2.017882 3.072 1.024 2.017882 3.072 3.072 5.089882 5.059765a17.197176 17.197176 0 0 0 10.149647 3.041882h151.250824a18.160941 18.160941 0 0 0 18.251294-18.221177c-0.993882-10.179765-9.125647-18.281412-18.251294-18.281411z m532.901647-151.220706a18.160941 18.160941 0 0 0-18.221176 18.221176v132.99953h-132.99953a18.191059 18.191059 0 0 0-18.281412 18.251294c0 10.149647 8.161882 18.221176 18.281412 18.221176h151.220706c2.017882 0 5.089882 0 7.107765-0.993882 1.024 0 2.017882-0.993882 3.041882-2.017882 2.048-0.993882 3.072-3.041882 5.089882-5.059765a17.287529 17.287529 0 0 0 3.041883-10.149647v-151.250824a18.191059 18.191059 0 0 0-18.281412-18.221176z m-154.262588 71.017412h37.556706c-9.185882-75.113412-55.868235-138.059294-119.808-171.52a165.285647 165.285647 0 0 0 59.873882-126.885648 164.442353 164.442353 0 0 0-164.442353-164.442352c-90.322824 0-164.412235 74.089412-164.412235 164.442352 0 52.766118 24.365176 99.478588 62.915764 128.90353a222.448941 222.448941 0 0 0-114.688 168.508235h37.556706c13.191529-66.981647 61.921882-121.795765 125.861647-142.125176 16.233412 5.089882 34.514824 9.125647 52.766118 9.125647 20.329412 0 38.580706-4.035765 56.862118-10.11953 64.933647 20.269176 116.736 75.083294 129.957647 144.112942z m-316.717177-298.435765a129.084235 129.084235 0 0 1 128.90353-128.90353 129.084235 129.084235 0 0 1 128.933647 128.90353 127.909647 127.909647 0 0 1-62.976 110.622117 137.878588 137.878588 0 0 1-21.323294 10.149648c-0.993882 0-1.987765 0.993882-3.011765 0.993882-2.048 0.993882-4.096 0.993882-6.083765 2.048-2.048 0.993882-5.089882 0.993882-7.077647 2.017882-1.054118 1.024-3.072 1.024-5.089882 1.024-3.072 0.993882-6.113882 0.993882-9.155765 0.993883h-3.041882c-4.065882 0-8.131765 0.993882-11.173647 0.993882-4.065882 0-8.131765 0-11.173647-0.993882h-3.041883c-4.065882 0-7.107765-0.993882-11.173647-2.017883-1.024 0-2.048 0-3.072-1.024-3.041882-0.993882-5.059765-0.993882-8.131764-2.048-1.024 0-2.017882-0.993882-4.065883-0.993882l-9.125647-3.011765c-1.024-1.054118-3.041882-1.054118-4.065882-2.017882-2.017882-1.024-4.065882-2.048-5.089883-3.072-1.024-1.024-3.041882-1.024-4.035764-2.048-39.544471-20.239059-65.927529-62.885647-65.92753-111.616z m0 0" p-id="1079"></path></svg>
